<svg width="56" height="36" viewBox="0 0 56 36" fill="none" xmlns="http://www.w3.org/2000/svg">
<rect width="56" height="36" fill="#F3F5F9"/>
<path fill-rule="evenodd" clip-rule="evenodd" d="M21 27.8672C20.4477 27.8672 20 27.4195 20 26.8672V9C20 8.44772 20.4477 8 21 8C21.0415 8 21.0829 8.00258 21.124 8.00772L35.124 9.75772C35.6245 9.82028 36 10.2457 36 10.75V26.8672C36 27.4195 35.5523 27.8672 35 27.8672H21ZM22 10.1332V25.8672L24 25.867V21.8672C24 21.3149 24.4477 20.8672 25 20.8672H31C31.5523 20.8672 32 21.3149 32 21.8672V25.867L34 25.8672V11.6332L22 10.1332ZM30 22.8672H26V25.8672H30V22.8672ZM31 16.8672C31.5523 16.8672 32 17.3149 32 17.8672C32 18.4195 31.5523 18.8672 31 18.8672H25C24.4477 18.8672 24 18.4195 24 17.8672C24 17.3149 24.4477 16.8672 25 16.8672H31ZM31 13.8672C31.5523 13.8672 32 14.3149 32 14.8672C32 15.4195 31.5523 15.8672 31 15.8672H25C24.4477 15.8672 24 15.4195 24 14.8672C24 14.3149 24.4477 13.8672 25 13.8672H31Z" fill="#2C323D" fill-opacity="0.87"/>
</svg>
