<svg width="56" height="36" viewBox="0 0 56 36" fill="none" xmlns="http://www.w3.org/2000/svg">
<rect width="56" height="36" fill="#F3F5F9"/>
<path fill-rule="evenodd" clip-rule="evenodd" d="M23.1392 10.0343C23.6727 9.89138 24.221 10.208 24.364 10.7414L27.211 21.3666L34.9384 19.2961C35.4718 19.1531 36.0202 19.4697 36.1631 20.0032C36.3061 20.5366 35.9895 21.085 35.456 21.2279L27.7286 23.2985C28.1574 24.8989 27.2077 26.5439 25.6073 26.9727C24.0069 27.4015 22.3619 26.4518 21.933 24.8514C21.5042 23.251 22.454 21.606 24.0544 21.1771C24.3934 21.0863 24.7344 21.0573 25.0654 21.0833L22.6909 12.225L20.7591 12.7426C20.2256 12.8856 19.6773 12.569 19.5343 12.0355C19.3914 11.5021 19.708 10.9537 20.2414 10.8108L23.1392 10.0343ZM24.572 23.109C24.0385 23.2519 23.722 23.8003 23.8649 24.3337C24.0078 24.8672 24.5562 25.1838 25.0896 25.0408C25.6231 24.8979 25.9397 24.3496 25.7967 23.8161C25.6538 23.2826 25.1055 22.9661 24.572 23.109ZM32.609 10.6027C33.1425 10.4598 33.6908 10.7764 33.8337 11.3098L35.3867 17.1054C35.5296 17.6389 35.213 18.1872 34.6795 18.3301L28.884 19.883C28.3505 20.026 27.8022 19.7094 27.6592 19.1759L26.1063 13.3804C25.9634 12.8469 26.28 12.2986 26.8134 12.1556L32.609 10.6027ZM32.1607 12.7934L28.297 13.8287L29.3323 17.6924L33.196 16.6571L32.1607 12.7934Z" fill="#2C323D" fill-opacity="0.87"/>
</svg>
