<svg width="56" height="36" viewBox="0 0 56 36" fill="none" xmlns="http://www.w3.org/2000/svg">
<rect width="56" height="36" fill="#F3F5F9"/>
<path fill-rule="evenodd" clip-rule="evenodd" d="M35.5 9.5L34 8L32.5 9.5L31 8L29.5 9.5L28 8L26.5 9.5L25 8L23.5 9.5L22 8L20.5 9.5L19 8V28L20.5 26.5L22 28L23.5 26.5L25 28L26.5 26.5L28 28L29.5 26.5L31 28L32.5 26.5L34 28L35.5 26.5L37 28V8L35.5 9.5ZM35 25.09H21V10.91H35V25.09ZM22 21H34V23H22V21ZM22 17H34V19H22V17ZM22 13H34V15H22V13Z" fill="#2C323D" fill-opacity="0.87"/>
<mask id="mask0_123_9248" style="mask-type:alpha" maskUnits="userSpaceOnUse" x="19" y="8" width="18" height="20">
<path fill-rule="evenodd" clip-rule="evenodd" d="M35.5 9.5L34 8L32.5 9.5L31 8L29.5 9.5L28 8L26.5 9.5L25 8L23.5 9.5L22 8L20.5 9.5L19 8V28L20.5 26.5L22 28L23.5 26.5L25 28L26.5 26.5L28 28L29.5 26.5L31 28L32.5 26.5L34 28L35.5 26.5L37 28V8L35.5 9.5ZM35 25.09H21V10.91H35V25.09ZM22 21H34V23H22V21ZM22 17H34V19H22V17ZM22 13H34V15H22V13Z" fill="white"/>
</mask>
<g mask="url(#mask0_123_9248)">
</g>
</svg>
