<svg width="72" height="36" viewBox="0 0 72 36" fill="none" xmlns="http://www.w3.org/2000/svg">
<path fill-rule="evenodd" clip-rule="evenodd" d="M3.5 25.7166C3.5 21.3126 6.45883 18.7911 9.98499 18.7911C11.9161 18.7911 13.2982 19.6077 14.2015 20.5135L12.5188 22.5377C11.8807 21.9521 11.1895 21.5081 10.091 21.5081C8.14205 21.5081 6.7425 23.035 6.7425 25.6103C6.7425 28.2381 7.91162 29.7654 10.3568 29.7654C10.8351 29.7654 11.3313 29.6407 11.615 29.4282V27.2968H9.52414V24.7045H14.432V30.8842C13.5107 31.7721 11.8807 32.4999 10.0382 32.4999C6.37024 32.4999 3.5 30.1914 3.5 25.7166" fill="#141414"/>
<path fill-rule="evenodd" clip-rule="evenodd" d="M16.8398 22.1474H19.409L19.6215 23.9056H19.6922C20.4367 22.5559 21.5526 21.8989 22.5624 21.8989C23.1651 21.8989 23.5016 21.9877 23.7852 22.1119L23.2537 24.8289C22.8993 24.7401 22.5982 24.6688 22.1553 24.6688C21.4112 24.6688 20.5074 25.1482 19.9759 26.48V32.2512H16.8398V22.1474Z" fill="#141414"/>
<mask id="mask0_67_3258" style="mask-type:alpha" maskUnits="userSpaceOnUse" x="24" y="21" width="11" height="12">
<path fill-rule="evenodd" clip-rule="evenodd" d="M24.2803 21.8988H34.1491V32.4999H24.2803V21.8988Z" fill="white"/>
</mask>
<g mask="url(#mask0_67_3258)">
<path fill-rule="evenodd" clip-rule="evenodd" d="M30.9246 27.2081C30.9246 25.5212 30.393 24.4557 29.2234 24.4557C28.0364 24.4557 27.5049 25.5212 27.5049 27.2081C27.5049 28.8772 28.0364 29.9431 29.2234 29.9431C30.393 29.9431 30.9246 28.8772 30.9246 27.2081M24.2803 27.2081C24.2803 23.8521 26.6548 21.8988 29.2234 21.8988C31.7751 21.8988 34.1491 23.8521 34.1491 27.2081C34.1491 30.5467 31.7751 32.5 29.2234 32.5C26.6548 32.5 24.2803 30.5467 24.2803 27.2081" fill="#141414"/>
</g>
<mask id="mask1_67_3258" style="mask-type:alpha" maskUnits="userSpaceOnUse" x="36" y="22" width="10" height="11">
<path fill-rule="evenodd" clip-rule="evenodd" d="M36.0259 22.1475H45.186V32.5H36.0259V22.1475Z" fill="white"/>
</mask>
<g mask="url(#mask1_67_3258)">
<path fill-rule="evenodd" clip-rule="evenodd" d="M36.0259 28.398V22.1475H39.1798V28.0075C39.1798 29.4101 39.5516 29.8007 40.3489 29.8007C41.0576 29.8007 41.5006 29.5169 42.0321 28.7711V22.1475H45.186V32.2513H42.6169L42.3865 30.8662H42.3158C41.4831 31.8608 40.544 32.5002 39.1619 32.5002C36.965 32.5002 36.0259 30.9195 36.0259 28.398" fill="#141414"/>
</g>
<path fill-rule="evenodd" clip-rule="evenodd" d="M47.7188 22.1474H50.2879L50.5004 23.4083H50.5711C51.4038 22.5913 52.4315 21.8989 53.7957 21.8989C55.993 21.8989 56.9321 23.4792 56.9321 26.0007V32.2512H53.7782V26.3912C53.7782 25.0065 53.406 24.598 52.6087 24.598C51.8999 24.598 51.4749 24.9177 50.8548 25.5034V32.2512H47.7188V22.1474Z" fill="#141414"/>
<path fill-rule="evenodd" clip-rule="evenodd" d="M65.3284 29.0551V25.0776C64.8497 24.6337 64.3007 24.4736 63.7691 24.4736C62.9007 24.4736 62.1038 25.2906 62.1038 27.1551C62.1038 29.0905 62.7414 29.9076 63.8224 29.9076C64.4246 29.9076 64.9029 29.7121 65.3284 29.0551M58.8613 27.2081C58.8613 23.8875 60.9343 21.8987 63.0251 21.8987C64.1414 21.8987 64.7969 22.3072 65.4524 22.9462L65.3284 21.4368V18.0634H68.4998V32.2515H65.9307L65.7002 31.2748H65.6295C64.9208 31.9851 63.9463 32.4999 62.9897 32.4999C60.4734 32.4999 58.8613 30.4932 58.8613 27.2081" fill="#141414"/>
<path fill-rule="evenodd" clip-rule="evenodd" d="M16.2674 12.0508C15.2826 9.81225 16.2141 7.87013 17.9166 7.11812C18.79 6.73248 19.6709 6.82844 20.3367 7.0948L19.9425 8.49747C19.4745 8.33828 19.028 8.2764 18.5506 8.48761C17.6862 8.86921 17.3157 9.95978 17.8915 11.2683C18.479 12.6046 19.4329 13.1104 20.3783 12.6925C20.9094 12.4579 21.2231 11.9961 21.3873 11.5136L22.6781 12.1508C22.4007 13.0602 21.8002 13.7247 20.9264 14.1104C19.2244 14.8619 17.2674 14.3252 16.2674 12.0508" fill="#141414"/>
<mask id="mask2_67_3258" style="mask-type:alpha" maskUnits="userSpaceOnUse" x="27" y="3" width="8" height="9">
<path fill-rule="evenodd" clip-rule="evenodd" d="M27.4541 3.5H34.2644V11.5419H27.4541V3.5Z" fill="white"/>
</mask>
<g mask="url(#mask2_67_3258)">
<path fill-rule="evenodd" clip-rule="evenodd" d="M27.4541 4.26579L29.2004 4.03754L29.5606 6.80521L31.9512 6.49266L31.5915 3.72588L33.3181 3.49988L34.2644 10.776L32.5373 11.0011L32.148 8.00878L29.7575 8.32088L30.1467 11.3137L28.4 11.5419L27.4541 4.26579Z" fill="#141414"/>
</g>
<path fill-rule="evenodd" clip-rule="evenodd" d="M41.5135 3.67627L46.1063 4.36774L45.8902 5.81121L43.0392 5.38162L42.8374 6.72779L45.2602 7.09236L45.041 8.55512L42.6177 8.19055L42.3868 9.73133L45.3452 10.1766L45.1255 11.6398L40.4258 10.9322L41.5135 3.67627Z" fill="#141414"/>
<path fill-rule="evenodd" clip-rule="evenodd" d="M54.0296 10.3875L54.7472 10.7108C55.5105 11.0543 56.0636 10.9037 56.3459 10.2741C56.6282 9.64449 56.3173 9.25571 55.5539 8.91177L54.8363 8.58846L54.0296 10.3875ZM54.405 14.9139L54.2323 12.0036L53.4609 11.6557L52.4036 14.0121L50.7974 13.2888L53.7987 6.59656L56.2488 7.70013C57.6756 8.34272 58.6425 9.36243 57.9164 10.9812C57.477 11.9619 56.7365 12.3853 55.9007 12.3978L56.2005 15.7229L54.405 14.9139Z" fill="#141414"/>
</svg>
