<svg width="20" height="20" viewBox="0 0 20 20" fill="none" xmlns="http://www.w3.org/2000/svg">
<path fill-rule="evenodd" clip-rule="evenodd" d="M9.77512 1.75L11.2584 3.225L4.48345 10L11.2584 16.775L9.78345 18.25L1.53345 10L9.77512 1.75ZM16.4418 1.75L17.9251 3.225L11.1501 10L17.9251 16.775L16.4501 18.25L8.20011 10L16.4418 1.75Z" fill="#2C323D" fill-opacity="0.87"/>
<mask id="mask0_67_3237" style="mask-type:alpha" maskUnits="userSpaceOnUse" x="1" y="1" width="17" height="18">
<path fill-rule="evenodd" clip-rule="evenodd" d="M9.77512 1.75L11.2584 3.225L4.48345 10L11.2584 16.775L9.78345 18.25L1.53345 10L9.77512 1.75ZM16.4418 1.75L17.9251 3.225L11.1501 10L17.9251 16.775L16.4501 18.25L8.20011 10L16.4418 1.75Z" fill="white"/>
</mask>
<g mask="url(#mask0_67_3237)">
</g>
</svg>
