<svg width="56" height="36" viewBox="0 0 56 36" fill="none" xmlns="http://www.w3.org/2000/svg">
<rect width="56" height="36" fill="#F3F5F9"/>
<path fill-rule="evenodd" clip-rule="evenodd" d="M28 8C33.5228 8 38 12.4772 38 18C38 23.5228 33.5228 28 28 28C22.4772 28 18 23.5228 18 18C18 12.4772 22.4772 8 28 8ZM28 10C23.5817 10 20 13.5817 20 18C20 22.4183 23.5817 26 28 26C32.4183 26 36 22.4183 36 18C36 13.5817 32.4183 10 28 10ZM28.137 13.35C29.8357 13.35 31.1175 14.0469 31.7896 15.3225C31.9389 15.5963 32.0198 15.8825 32.0198 16.1563C32.0198 16.7412 31.6216 17.1208 31.0242 17.1208C30.566 17.1208 30.2672 16.9511 30.0297 16.5462L29.9602 16.4176C29.5557 15.5838 28.9521 15.1794 28.1619 15.1794C26.9174 15.1794 26.1272 16.2434 26.1272 17.9857C26.1272 19.7466 26.9112 20.8107 28.1681 20.8107C28.9405 20.8107 29.5178 20.4637 29.905 19.7295L29.9851 19.5662C30.2215 19.0746 30.5015 18.8755 30.9806 18.8755C31.6278 18.8755 32.0509 19.2799 32.0509 19.8835C32.0509 20.1013 32.0011 20.3253 31.9078 20.5431C31.3664 21.8187 29.9353 22.64 28.2117 22.64C25.4489 22.64 23.8 20.9289 23.8 17.9919C23.8 15.0612 25.4863 13.35 28.137 13.35Z" fill="#2C323D" fill-opacity="0.87"/>
</svg>
