<svg width="56" height="36" viewBox="0 0 56 36" fill="none" xmlns="http://www.w3.org/2000/svg">
<rect width="56" height="36" fill="#F3F5F9"/>
<path fill-rule="evenodd" clip-rule="evenodd" d="M30.25 8C30.5648 8 30.8611 8.14819 31.05 8.4L32.25 10H35C35.5128 10 35.9355 10.386 35.9933 10.8834L36 11V27C36 27.5523 35.5523 28 35 28H21C20.4477 28 20 27.5523 20 27V11C20 10.4477 20.4477 10 21 10H23.748L24.95 8.4C25.1389 8.14819 25.4352 8 25.75 8H30.25ZM31.05 13.6C30.8611 13.8518 30.5648 14 30.25 14H25.75C25.4352 14 25.1389 13.8518 24.95 13.6L23.749 12H22V26H34V12H32.249L31.05 13.6ZM31.8853 17.2322C32.2758 17.6228 32.2758 18.2559 31.8853 18.6464L27.6426 22.8891C27.4924 23.0393 27.3063 23.1317 27.112 23.1664L26.9946 23.1802H26.8765C26.6406 23.1664 26.4087 23.0693 26.2284 22.8891L24.1071 20.7678C23.7166 20.3772 23.7166 19.7441 24.1071 19.3536C24.4976 18.963 25.1308 18.963 25.5213 19.3536L26.935 20.767L30.4711 17.2322C30.8616 16.8417 31.4948 16.8417 31.8853 17.2322ZM29.751 10H26.25L25.5 11L26.251 12H29.75L30.5 11L29.751 10Z" fill="#2C323D" fill-opacity="0.87"/>
</svg>
