<svg width="56" height="36" viewBox="0 0 56 36" fill="none" xmlns="http://www.w3.org/2000/svg">
<rect width="56" height="36" fill="#F3F5F9"/>
<path d="M32 17C33.66 17 34.99 15.66 34.99 14C34.99 12.34 33.66 11 32 11C30.34 11 29 12.34 29 14C29 15.66 30.34 17 32 17ZM24 17C25.66 17 26.99 15.66 26.99 14C26.99 12.34 25.66 11 24 11C22.34 11 21 12.34 21 14C21 15.66 22.34 17 24 17ZM24 19C21.67 19 17 20.17 17 22.5V25H31V22.5C31 20.17 26.33 19 24 19ZM32 19C31.71 19 31.38 19.02 31.03 19.05C32.19 19.89 33 21.02 33 22.5V25H39V22.5C39 20.17 34.33 19 32 19Z" fill="#2C323D" fill-opacity="0.87"/>
</svg>
