<svg width="56" height="36" viewBox="0 0 56 36" fill="none" xmlns="http://www.w3.org/2000/svg">
<rect width="56" height="36" fill="#F3F5F9"/>
<path fill-rule="evenodd" clip-rule="evenodd" d="M35 22.9774L26 19.839V14.747L35 11.6085V22.9774ZM25.5294 12.793L35.6707 9.25653C36.3207 9.02987 37 9.5124 37 10.2008V24.3852C37 25.0736 36.3207 25.5561 35.6707 25.3295L26 21.9571V25.793C26 26.3453 25.5523 26.793 25 26.793H22C21.4477 26.793 21 26.3453 21 25.793V21.5369C19.2522 20.9192 18 19.2523 18 17.293C18 14.8077 20.0147 12.793 22.5 12.793H25.5294ZM24 14.793H22.5C21.1193 14.793 20 15.9123 20 17.293C20 18.6737 21.1193 19.793 22.5 19.793H24V14.793ZM23 24.793V21.793H24V24.793H23Z" fill="#2C323D" fill-opacity="0.87"/>
</svg>
