<svg width="20" height="20" viewBox="0 0 20 20" fill="none" xmlns="http://www.w3.org/2000/svg">
<path fill-rule="evenodd" clip-rule="evenodd" d="M3.55828 1.75L2.07495 3.225L8.84995 10L2.07495 16.775L3.54995 18.25L11.8 10L3.55828 1.75ZM10.225 1.75L8.74162 3.225L15.5166 10L8.74162 16.775L10.2166 18.25L18.4666 10L10.225 1.75Z" fill="#2C323D" fill-opacity="0.87"/>
<mask id="mask0_107_2751" style="mask-type:alpha" maskUnits="userSpaceOnUse" x="2" y="1" width="17" height="18">
<path fill-rule="evenodd" clip-rule="evenodd" d="M3.55828 1.75L2.07495 3.225L8.84995 10L2.07495 16.775L3.54995 18.25L11.8 10L3.55828 1.75ZM10.225 1.75L8.74162 3.225L15.5166 10L8.74162 16.775L10.2166 18.25L18.4666 10L10.225 1.75Z" fill="white"/>
</mask>
<g mask="url(#mask0_107_2751)">
</g>
</svg>
