<svg width="56" height="36" viewBox="0 0 56 36" fill="none" xmlns="http://www.w3.org/2000/svg">
<rect width="56" height="36" fill="#F3F5F9"/>
<path fill-rule="evenodd" clip-rule="evenodd" d="M31.5858 8C31.851 8 32.1054 8.10536 32.2929 8.29289L35.7071 11.7071C35.8946 11.8946 36 12.149 36 12.4142V27C36 27.5523 35.5523 28 35 28H21C20.4477 28 20 27.5523 20 27V9C20 8.44772 20.4477 8 21 8H31.5858ZM31.171 10H22V26H34V12.829L31.171 10ZM31 19C31.5523 19 32 19.4477 32 20C32 20.5523 31.5523 21 31 21H25C24.4477 21 24 20.5523 24 20C24 19.4477 24.4477 19 25 19H31ZM29 15C29.5523 15 30 15.4477 30 16C30 16.5523 29.5523 17 29 17H25C24.4477 17 24 16.5523 24 16C24 15.4477 24.4477 15 25 15H29Z" fill="#2C323D" fill-opacity="0.87"/>
</svg>
