<svg width="56" height="36" viewBox="0 0 56 36" fill="none" xmlns="http://www.w3.org/2000/svg">
<rect width="56" height="36" fill="#F3F5F9"/>
<path fill-rule="evenodd" clip-rule="evenodd" d="M35 8C35.5523 8 36 8.44772 36 9V26.4905C36 27.0428 35.5523 27.4905 35 27.4905C34.866 27.4905 34.7334 27.4636 34.61 27.4113L32 26.3059L30.6085 27.4846C30.2525 27.7861 29.7353 27.8015 29.3621 27.5215L28 26.4999L26.6448 27.5164C26.2684 27.7987 25.7462 27.7805 25.3905 27.4727L24.0419 26.3059L21.3865 27.4189C20.8772 27.6323 20.2912 27.3925 20.0777 26.8831C20.0264 26.7607 20 26.6293 20 26.4966V9C20 8.44772 20.4477 8 21 8H35ZM34 10H22V24.993L23.8408 24.2216C24.191 24.0748 24.5942 24.1391 24.8814 24.3876L26.089 25.432L27.4002 24.4493C27.7557 24.183 28.2443 24.183 28.5997 24.4494L29.924 25.442L31.177 24.3816C31.465 24.1379 31.8656 24.077 32.213 24.2242L34 24.981V10ZM30.5 18C31.3284 18 32 18.6716 32 19.5C32 20.3284 31.3284 21 30.5 21C29.6716 21 29 20.3284 29 19.5C29 18.6716 29.6716 18 30.5 18ZM31.5355 13.4645C31.9261 13.855 31.9261 14.4882 31.5355 14.8787L25.8787 20.5355C25.4882 20.9261 24.855 20.9261 24.4645 20.5355C24.0739 20.145 24.0739 19.5118 24.4645 19.1213L30.1213 13.4645C30.5118 13.0739 31.145 13.0739 31.5355 13.4645ZM25.5 13C26.3284 13 27 13.6716 27 14.5C27 15.3284 26.3284 16 25.5 16C24.6716 16 24 15.3284 24 14.5C24 13.6716 24.6716 13 25.5 13Z" fill="#2C323D" fill-opacity="0.87"/>
</svg>
