<svg width="56" height="36" viewBox="0 0 56 36" fill="none" xmlns="http://www.w3.org/2000/svg">
<rect width="56" height="36" fill="#F3F5F9"/>
<path fill-rule="evenodd" clip-rule="evenodd" d="M27.9999 11C26.3287 11 24.9739 12.3431 24.9739 14C24.9739 14.5523 25.4255 15 25.9826 15C26.4999 15 26.9262 14.614 26.9845 14.1166L26.998 13.8834C27.0563 13.386 27.4826 13 27.9999 13C28.557 13 29.0086 13.4477 29.0086 14C29.0086 14.5128 28.6192 14.9355 28.1176 14.9933L27.9999 15C27.4429 15 26.9912 15.4477 26.9912 16L26.9922 17.478L18.6454 23.2712C18.2858 23.5207 18.0556 23.9108 18.0088 24.3382L18 24.5C18 25.2797 18.6001 25.9204 19.3673 25.9931L19.513 26H36.4868C36.9806 26 37.4432 25.7612 37.7264 25.3602C38.1774 24.7214 38.0564 23.8554 37.4699 23.3596L37.3545 23.2712L29.0096 17.479L29.0095 16.829C30.1311 16.4356 30.949 15.4051 31.0209 14.1763L31.026 14C31.026 12.3431 29.6712 11 27.9999 11ZM27.9999 19.22L34.8883 24H21.1126L27.9999 19.22Z" fill="#2C323D" fill-opacity="0.87"/>
</svg>
