<svg width="56" height="36" viewBox="0 0 56 36" fill="none" xmlns="http://www.w3.org/2000/svg">
<rect width="56" height="36" fill="#F3F5F9"/>
<path fill-rule="evenodd" clip-rule="evenodd" d="M36 9C37.1046 9 38 9.89543 38 11V23C38 24.1046 37.1046 25 36 25H31L29.8459 27.7669C29.4206 28.7864 28.2495 29.2681 27.2301 28.8428C26.7437 28.6399 26.357 28.2533 26.1541 27.7669L25 25H20C18.8954 25 18 24.1046 18 23V11C18 9.89543 18.8954 9 20 9H36ZM36 11H20V23H25C25.7533 23 26.4377 23.4226 26.7782 24.0846L26.8459 24.2301L28 26.995L29.1541 24.2301C29.4442 23.5348 30.0977 23.0658 30.8397 23.0064L31 23H36V11ZM27.7254 19.7879C28.2876 19.7879 28.7363 20.2158 28.7363 20.7578C28.7363 21.2998 28.2876 21.7277 27.7254 21.7277C27.1681 21.7277 26.7203 21.2989 26.7203 20.7578C26.7203 20.2167 27.1681 19.7879 27.7254 19.7879ZM27.948 12.95C29.6388 12.95 30.7812 13.8849 30.7812 15.2793C30.7812 16.1569 30.371 16.7859 29.5024 17.2972C28.7683 17.7222 28.573 17.9564 28.4949 18.4601C28.3984 18.8911 28.1392 19.1203 27.7137 19.1203C27.2391 19.1203 26.924 18.8222 26.8784 18.367L26.8727 18.25V18.168C26.8727 17.5364 27.1591 17.0784 27.7829 16.6727L27.9459 16.5723C28.691 16.1275 28.9059 15.8483 28.9059 15.332C28.9059 14.7864 28.4837 14.4094 27.866 14.4094C27.3187 14.4094 26.947 14.6719 26.7642 15.1803C26.6144 15.5638 26.3395 15.7512 25.95 15.7512C25.4622 15.7512 25.15 15.4443 25.15 14.9688C25.15 14.7122 25.2088 14.4814 25.3308 14.2497C25.7232 13.4404 26.6958 12.95 27.948 12.95Z" fill="#2C323D" fill-opacity="0.87"/>
</svg>
