<svg width="56" height="36" viewBox="0 0 56 36" fill="none" xmlns="http://www.w3.org/2000/svg">
<rect width="56" height="36" fill="#F3F5F9"/>
<path fill-rule="evenodd" clip-rule="evenodd" d="M27.9355 8C30.1447 8 31.9355 9.79086 31.9355 12H33.9961C34.5242 12 34.9612 12.4106 34.9942 12.9376L35.8692 26.9376C35.9036 27.4888 35.4847 27.9636 34.9335 27.9981L34.8711 28H21C20.4477 28 20 27.5523 20 27L20.0019 26.9376L20.8769 12.9376C20.9099 12.4106 21.3469 12 21.875 12H23.9355C23.9355 9.79086 25.7264 8 27.9355 8ZM26.9355 14H22.8135L22.0635 26H33.8065L33.0565 14H28.9355V16H29.0683C29.5659 16 29.9878 16.3659 30.0582 16.8586L30.7725 21.8586C30.8506 22.4053 30.4707 22.9118 29.924 22.9899C29.8771 22.9966 29.8299 23 29.7825 23H26.0886C25.5363 23 25.0886 22.5523 25.0886 22C25.0886 21.9527 25.0919 21.9054 25.0986 21.8586L25.8129 16.8586C25.8833 16.3659 26.3052 16 26.8028 16H26.9355V14ZM28.2005 18H27.6695L27.2405 21H28.6295L28.2005 18ZM27.9355 10C26.8812 10 26.0174 10.8159 25.941 11.8507L25.9355 12H29.9355C29.9355 10.9456 29.1197 10.0818 28.0848 10.0055L27.9355 10Z" fill="#2C323D" fill-opacity="0.87"/>
</svg>
