<svg width="56" height="36" viewBox="0 0 56 36" fill="none" xmlns="http://www.w3.org/2000/svg">
<rect width="56" height="36" fill="#F3F5F9"/>
<path d="M28 11.9C29.16 11.9 30.1 12.84 30.1 14C30.1 15.16 29.16 16.1 28 16.1C26.84 16.1 25.9 15.16 25.9 14C25.9 12.84 26.84 11.9 28 11.9ZM28 20.9C30.97 20.9 34.1 22.36 34.1 23V24.1H21.9V23C21.9 22.36 25.03 20.9 28 20.9ZM28 10C25.79 10 24 11.79 24 14C24 16.21 25.79 18 28 18C30.21 18 32 16.21 32 14C32 11.79 30.21 10 28 10ZM28 19C25.33 19 20 20.34 20 23V26H36V23C36 20.34 30.67 19 28 19Z" fill="#2C323D" fill-opacity="0.87"/>
</svg>
