<svg width="56" height="36" viewBox="0 0 56 36" fill="none" xmlns="http://www.w3.org/2000/svg">
<rect width="56" height="36" fill="#F3F5F9"/>
<path fill-rule="evenodd" clip-rule="evenodd" d="M28.5145 8.14251L37.5145 13.5425C37.8157 13.7232 38 14.0487 38 14.4V26.8338C38 27.3861 37.5523 27.8338 37 27.8338H19C18.4477 27.8338 18 27.3861 18 26.8338V14.4C18 14.0487 18.1843 13.7232 18.4855 13.5425L27.4855 8.14251C27.8022 7.9525 28.1978 7.9525 28.5145 8.14251ZM28 10.1658L20 14.9648V25.8338L23 25.833V18.8338C23 18.2815 23.4477 17.8338 24 17.8338H32C32.5523 17.8338 33 18.2815 33 18.8338V25.833L36 25.8338V14.9658L28 10.1658ZM31 19.8338H25V25.8338H31V19.8338ZM30 13.8338C30.5523 13.8338 31 14.2815 31 14.8338C31 15.3861 30.5523 15.8338 30 15.8338H26C25.4477 15.8338 25 15.3861 25 14.8338C25 14.2815 25.4477 13.8338 26 13.8338H30Z" fill="#2C323D" fill-opacity="0.87"/>
</svg>
